<?xml version="1.0" encoding="utf-8"?>
<!-- Generator: Adobe Illustrator 22.1.0, SVG Export Plug-In . SVG Version: 6.00 Build 0)  -->
<svg version="1.1" id="Calque_1" xmlns="http://www.w3.org/2000/svg" xmlns:xlink="http://www.w3.org/1999/xlink" x="0px" y="0px"
	 viewBox="0 0 522.3 127.9" style="enable-background:new 0 0 522.3 127.9;" xml:space="preserve">
<style type="text/css">
	.st0{fill:#E6E2E4;}
</style>
<path class="st0" d="M1.2,56.2l0.5-4.7L3,33l0.8-11.1c0.6,0,1.2,0,1.6,0s1.1,0,1.6,0l1.1,3.4c0.4,0.9,0.9,2.8,2,5.6l6.6,18.4
	l1.8,4.8l13.3-29.3c0.4-0.7,0.7-1.8,1.2-3c0.6,0,1.1,0,1.6,0c0.5,0,1.1,0,1.6,0L36,36.3c0,3.3,0,5.7,0,7.3c0,5.3,0,9.4,0.1,12.4
	c-0.5,0-0.8,0-1.2,0s-0.8,0-1.2,0L34.2,34c0-2.7,0.1-5,0.1-7v-3.3L30.1,33L19.9,56.2c-0.4,0-0.8,0-1.3,0c-0.5,0-0.9,0-1.3,0
	L6.5,25.9l-0.8-2l-0.2,2.9c-0.1,0.8-0.2,2.5-0.4,4.9L3.8,50.2c0,0.8-0.1,1.5-0.1,2.3c0,0.8-0.1,2-0.1,3.5c-0.5,0-0.8,0-1.2,0
	S1.6,56.2,1.2,56.2z"/>
<path class="st0" d="M45,33.4c0.1-0.6,0.2-1.2,0.2-2c1.8-0.5,3.2-0.8,4.5-0.9c1.3-0.1,2.6-0.2,3.9-0.2c1.5,0,2.8,0.1,4.1,0.4
	s2.3,0.7,3.2,1.3c0.8,0.6,1.3,1.3,1.6,2.1c0.2,0.8,0.4,1.6,0.4,2.5s0,1.9-0.1,3.2c0,1.3-0.1,2.7-0.2,4.1c-0.1,1.5-0.2,3.3-0.2,5.5
	c-0.1,2.2-0.1,3.8-0.1,4.8v2.1c-0.5,0-0.8,0-1.1,0c-0.2,0-0.6,0-1.1,0c0.2-2.6,0.4-4.7,0.5-6.2c0.1-1.6,0.1-3.3,0.2-5.2
	c0-1.9,0.1-3.5,0.2-5.2c-0.5,0.5-0.9,0.7-1.2,0.9c-0.2,0.2-0.6,0.4-0.9,0.6c-0.4,0.1-0.7,0.4-1.2,0.5c-0.5,0.1-0.9,0.4-1.3,0.5
	c-0.4,0.1-1.3,0.4-2.8,0.8c-1.5,0.4-2.6,0.7-3.2,0.9c-1.4,0.5-2.6,0.9-3.3,1.3c-0.8,0.5-1.5,0.9-2.1,1.5c-0.5,0.5-0.8,0.9-1.1,1.5
	c-0.2,0.6-0.4,1.3-0.4,2c0,1.1,0.4,2,0.9,2.8c0.7,0.8,1.5,1.4,2.5,1.6s2.2,0.5,3.6,0.5c0.7,0,1.4,0,2-0.1c0.7-0.1,1.3-0.1,1.9-0.4
	c0.6-0.2,1.4-0.4,2.5-0.7c-0.1,0.6-0.2,1.3-0.4,1.9c-1.4,0.2-2.5,0.5-3.3,0.5c-0.8,0.1-1.6,0.1-2.3,0.1c-1.4,0-2.7-0.1-3.9-0.4
	s-2.2-0.6-2.9-1.3c-0.7-0.7-1.4-1.4-1.8-2.2c-0.4-0.8-0.6-1.8-0.6-2.6c0-0.7,0.1-1.4,0.4-2c0.2-0.6,0.6-1.3,1.1-1.9
	c0.4-0.5,0.9-0.9,1.6-1.4c0.8-0.6,1.6-0.9,2.6-1.4c1.1-0.5,2.3-0.8,3.5-1.2c0.4-0.1,1.8-0.5,4.1-1.1c1.1-0.2,2.1-0.6,3-1.1
	c0.9-0.5,1.8-1.1,2.2-1.8c0.6-0.7,0.8-1.5,0.8-2.3c0-0.6-0.1-1.2-0.4-1.6s-0.7-1.1-1.3-1.5c-0.6-0.5-1.4-0.8-2.3-0.9
	c-0.9-0.2-2-0.2-3-0.2c-1.2,0-2.3,0.1-3.4,0.2c-1.1,0.1-2,0.4-2.7,0.6C47.2,32.7,46.2,33,45,33.4z"/>
<path class="st0" d="M91.3,56.2c-0.4,0-0.6,0-0.9,0c-0.2,0-0.6,0-0.9,0l0.2-5.4c-0.4,0.8-0.7,1.5-0.9,1.9c-0.2,0.4-0.6,0.8-0.9,1.2
	c-0.4,0.4-0.8,0.8-1.4,1.2s-1.3,0.7-2,0.9c-0.7,0.2-1.6,0.5-2.5,0.6s-1.6,0.1-2.5,0.1c-1.4,0-2.8-0.1-4-0.5
	c-1.2-0.4-2.3-0.8-3.3-1.6c-0.9-0.8-1.6-1.8-2-2.7c-0.4-1.1-0.5-2.2-0.5-3.5c0-1.1,0.1-3.5,0.4-7.5c0.2-4,0.4-7.3,0.4-9.9
	c0.5,0,0.7,0,0.9,0c0.2,0,0.6,0,0.9,0c-0.1,1.4-0.4,4.5-0.6,8.9c-0.2,4.6-0.4,7.4-0.4,8.6c0,1.3,0.1,2.3,0.5,3.3
	c0.4,0.9,0.9,1.6,1.8,2.2c0.8,0.6,1.8,0.9,2.8,1.2c1.1,0.2,2.1,0.4,3.3,0.4c1.2,0,2.2-0.1,3.3-0.5c1.1-0.2,2-0.7,2.7-1.1
	c0.7-0.5,1.3-0.9,1.9-1.6c0.6-0.7,1.2-1.6,1.5-2.6c0.4-0.8,0.7-1.9,0.8-3.2c0.2-1.3,0.4-3.5,0.5-6.9c0.1-3.2,0.2-6.1,0.2-8.7
	c0.5,0,0.8,0,1.1,0s0.6,0,0.9,0l-0.9,17.6l-0.1,3.8C91.3,53.7,91.3,55,91.3,56.2z"/>
<path class="st0" d="M120.2,56.2c-0.5,0-0.8,0-0.9,0c-0.2,0-0.6,0-1.1,0l0.4-6.3c-0.4,0.9-0.8,1.8-1.2,2.3c-0.4,0.6-0.8,1.2-1.3,1.6
	c-0.5,0.6-1.2,1.1-1.9,1.4c-0.7,0.4-1.6,0.8-2.6,1.1c-0.9,0.2-2,0.4-3,0.4c-1.6,0-3.2-0.2-4.6-0.8c-1.4-0.6-2.6-1.4-3.6-2.5
	c-1.1-1.1-1.6-2.3-2.1-3.8s-0.6-2.9-0.6-4.5c0-2.1,0.4-4.2,1.2-6.1c0.8-1.9,1.9-3.6,3.4-4.9c1.5-1.3,3.2-2.3,5-2.8
	c1.9-0.6,3.9-0.8,6-0.8c1.8,0,3.6,0.2,5.6,0.6c0.1-1.6,0.1-3.2,0.1-4.6c0-1.3,0-2.7-0.1-4.3c0.5,0,0.8,0,1.1,0s0.6,0,1.1,0
	c-0.2,3.2-0.4,6.5-0.5,9.9l-0.4,12.2c-0.1,4.7-0.1,7.7-0.1,9.1v2.8C120.1,56.2,120.2,56.2,120.2,56.2z M118.9,32.6
	c-1.2-0.4-2.2-0.6-3-0.7c-0.8-0.1-1.6-0.1-2.5-0.1c-1.9,0-3.6,0.2-5.4,0.8c-1.8,0.6-3.2,1.4-4.5,2.6c-1.3,1.2-2.2,2.7-2.9,4.6
	s-1.1,3.6-1.1,5.4c0,2,0.4,3.8,1.2,5.4c0.8,1.6,1.9,2.8,3.3,3.6c1.4,0.8,2.9,1.2,4.7,1.2c1.1,0,2-0.1,2.8-0.4
	c0.8-0.2,1.6-0.6,2.2-1.1c0.6-0.5,1.3-1.1,1.9-1.8c0.6-0.7,1.2-1.5,1.6-2.6c0.5-0.9,0.8-2.1,1.1-3.3s0.4-2.9,0.5-5.4L118.9,32.6z"/>
<path class="st0" d="M166.2,53.5c-0.1,0.6-0.2,1.3-0.4,2.1c-1.8,0.5-3.3,0.7-4.8,0.8s-2.8,0.2-4,0.2c-2.5,0-4.8-0.4-6.9-1.2
	c-2.2-0.8-4.1-2-5.6-3.5c-1.5-1.5-2.7-3.4-3.5-5.5c-0.7-2.1-1.1-4.3-1.1-6.7c0-2.6,0.5-5.2,1.3-7.6c0.8-2.5,2.1-4.5,3.8-6.1
	c1.6-1.6,3.6-2.8,6-3.6c2.3-0.8,4.8-1.2,7.4-1.2c0.9,0,1.9,0,2.8,0.1c1.1,0.1,1.9,0.1,2.6,0.2c0.7,0.1,1.5,0.2,2.7,0.5
	c0,0.7,0.1,1.4,0.2,2.1c-1.9-0.6-3.4-1.1-4.8-1.2c-1.3-0.2-2.6-0.4-3.9-0.4c-2.1,0-4.2,0.4-6.2,1.1s-3.8,1.8-5.3,3.2
	c-1.5,1.5-2.7,3.3-3.5,5.5c-0.8,2.2-1.2,4.5-1.2,6.8c0,2.2,0.4,4.3,1.1,6.5c0.7,2,1.6,3.8,3,5.2c1.4,1.4,3,2.5,4.9,3.2
	c1.9,0.7,4,1.1,6.2,1.1C159.6,55.1,162.8,54.5,166.2,53.5z"/>
<path class="st0" d="M172.3,56.2c0.4-7.2,0.7-14,0.9-20.2c0.2-6.2,0.4-10.9,0.4-14.1c0.5,0,0.8,0,1.2,0s0.7,0,1.1,0L175.1,38h23.3
	l0.5-12.6c0-0.7,0-1.9,0-3.4c0.5,0,0.8,0,1.2,0c0.4,0,0.7,0,1.1,0c-0.6,10.3-1.1,21.8-1.3,34.2c-0.5,0-0.8,0-1.1,0
	c-0.4,0-0.7,0-1.2,0c0.4-5.9,0.7-11.4,0.7-16.7H175l-0.5,12.2v4.3c-0.5,0-0.8,0-1.1,0C173.1,56.2,172.8,56.2,172.3,56.2z"/>
<path class="st0" d="M208.3,56.2c0.4-4.6,0.6-10.4,0.8-17.6s0.4-12.8,0.4-16.7c3.8,0,7.2,0,10.4,0h9.1c-0.1,0.7-0.1,1.3-0.1,1.8
	l-2-0.1c-0.5,0-1.4-0.1-2.7-0.1c-1.3,0-2.6,0-3.8,0c-4,0-6.9,0-9,0L211,37.9c2.6,0,4.8,0.1,6.9,0.1c2.5,0,5.6,0,9.3-0.1
	c-0.1,0.5-0.1,1.1-0.1,1.6l-9.5-0.1c-1.1,0-3.4,0-6.7,0.1l-0.5,15.1h7.2c2.8,0,4.8,0,5.9,0s2.6-0.1,4.5-0.2
	c-0.1,0.7-0.1,1.3-0.1,1.8c-4,0-6.9,0-8.8,0L208.3,56.2z"/>
<path class="st0" d="M235.2,56.2l0.6-9.9l0.7-20.3l0.1-4c0.4,0,0.9,0,1.5,0s1.2,0,1.5,0c0.8,1.4,1.5,2.5,2.1,3.3s1.8,2.5,3.5,5
	l12.9,18.5c1.3,1.9,2.6,3.8,4,5.6l1.1-28.6l0.1-3.9c0.5,0,0.8,0,1.1,0c0.2,0,0.6,0,1.1,0l-0.5,7.9l-0.8,21.5l-0.1,4.9
	c-0.6,0-1.1,0-1.5,0c-0.5,0-0.9,0-1.5,0l-4.6-6.8l-16-22.9l-1.9-2.6c0,0.8-0.1,1.8-0.1,2.6l-0.9,23.5l-0.1,6.1c-0.5,0-0.8,0-1.1,0
	C236.1,56.2,235.6,56.2,235.2,56.2z"/>
<path class="st0" d="M273.6,21.9c0.5,0,0.8,0,1.2,0s0.7,0,1.2,0l-1.2,20.5v1.9v0.5c0,2,0.2,3.6,0.8,4.9c0.5,1.3,1.4,2.3,2.5,3.2
	c1.2,0.8,2.3,1.4,3.8,1.8c1.4,0.4,2.8,0.5,4.5,0.5c1.5,0,3-0.1,4.5-0.5c1.1-0.2,2.1-0.6,2.9-1.1c0.7-0.4,1.4-0.8,2-1.4
	s1.1-1.3,1.5-2c0.4-0.7,0.7-1.5,0.9-2.3c0.4-1.6,0.6-3.5,0.7-5.9l0.5-10.3c0.1-3.9,0.2-7.2,0.2-9.6c0.5,0,0.8,0,1.1,0s0.7,0,1.1,0
	L301,33.4l-0.5,10.1c-0.1,2.2-0.4,4-0.7,5.5c-0.2,0.8-0.6,1.6-1.1,2.5c-0.5,0.7-0.9,1.4-1.5,1.9c-0.7,0.6-1.5,1.2-2.5,1.6
	c-1.1,0.6-2.2,0.9-3.4,1.2c-1.6,0.4-3.3,0.5-4.9,0.5c-1.9,0-3.5-0.2-5-0.6c-1.3-0.4-2.6-0.8-3.6-1.5c-1.2-0.7-2-1.5-2.7-2.3
	c-0.6-0.7-1.1-1.6-1.4-2.8c-0.4-1.2-0.5-2.6-0.5-4.2c0-1.5,0-3.2,0.1-5.2l0.6-13.4C273.6,25.1,273.6,23.5,273.6,21.9z"/>
<path class="st0" d="M315.4,56.2l0.4-6.2l0.9-26.5c-4.1,0-7.7,0.1-10.8,0.2c0.1-0.7,0.1-1.3,0.1-1.8c4,0,8.2,0,12.4,0h7.2h3.8
	c-0.1,0.7-0.1,1.3-0.1,1.8c-2-0.1-5-0.2-9.3-0.2h-1.4l-0.9,27.7c0,0.4,0,0.8,0,1.2v3.9c-0.5,0-0.8,0-1.2,0
	C316.2,56.2,315.9,56.2,315.4,56.2z"/>
<path class="st0" d="M329,43.8c0.1-0.7,0.1-1.3,0.1-1.8c1.9,0.1,3.9,0.1,6,0.1c2.1,0,4.1,0,6.1-0.1c-0.1,0.7-0.1,1.3-0.1,1.8
	c-1.9-0.1-3.9-0.1-6.1-0.1C333,43.7,331,43.7,329,43.8z"/>
<path class="st0" d="M345.3,56.2l0.6-8.2l0.7-21.6c0-0.8,0-1.6,0-2.5v-2.1h5.2h5.4c1.8,0,3,0.1,3.9,0.2s1.6,0.5,2.5,0.8
	c0.7,0.4,1.4,0.9,2,1.5c0.6,0.6,1.1,1.4,1.3,2.3c0.2,0.9,0.5,1.9,0.5,2.8c0,0.8-0.1,1.6-0.2,2.3c-0.1,0.7-0.5,1.5-0.9,2.2
	c-0.5,0.7-0.9,1.3-1.5,1.9c-0.6,0.5-1.1,0.9-1.6,1.3c-0.6,0.4-1.2,0.6-2.1,0.9c0.8,0.2,1.5,0.5,2,0.7c0.5,0.2,1.1,0.5,1.5,0.8
	c0.5,0.4,0.9,0.7,1.4,1.2c0.4,0.5,0.7,0.9,1.1,1.5c0.2,0.6,0.5,1.2,0.7,1.9c0.2,0.7,0.2,1.4,0.2,2.2c0,1.5-0.4,2.9-0.9,4.2
	s-1.5,2.3-2.8,3.2c-1.3,0.8-2.6,1.4-4,1.6c-1.4,0.2-2.9,0.4-4.7,0.4h-6.1L345.3,56.2z M347.5,54.5h7.3c2.3,0,4-0.1,5-0.4
	c1.1-0.2,2-0.7,2.9-1.3c0.9-0.6,1.6-1.5,2.2-2.7c0.6-1.2,0.8-2.5,0.8-3.8c0-1.3-0.2-2.3-0.8-3.4c-0.5-0.9-1.3-1.8-2.1-2.5
	c-0.9-0.6-1.9-1.1-2.9-1.2c-1.1-0.2-2.3-0.2-3.8-0.2H348L347.5,54.5z M348.1,37.6h4.9c2.6,0,4.3-0.1,5.2-0.2
	c1.2-0.2,2.2-0.6,3.2-1.1c0.7-0.4,1.3-0.9,1.9-1.5c0.6-0.7,1.1-1.5,1.4-2.5c0.4-0.9,0.5-1.9,0.5-2.9c0-0.9-0.1-1.9-0.5-2.6
	c-0.4-0.7-0.8-1.4-1.4-1.9c-0.6-0.6-1.4-0.9-2.2-1.2c-0.8-0.2-2.1-0.4-3.9-0.4h-8.7L348.1,37.6z"/>
<path class="st0" d="M373.8,56.2l0.4-6.1l0.7-18.9l0.1-5.4v-3.9h5h5.7c2.3,0,4.1,0.4,5.2,0.9c1.1,0.6,2,1.5,2.6,2.7
	c0.6,1.2,0.9,2.5,0.9,4c0,1.9-0.5,3.6-1.4,5.2s-2.2,2.7-3.9,3.5c-1.6,0.8-3.5,1.2-5.6,1.2c-0.2,0-0.7,0-1.2,0l12,16.7
	c-0.5,0-0.8,0-1.3,0c-0.5,0-0.9,0-1.3,0l-3.3-4.9l-9.6-13.5c1.5,0.2,2.8,0.4,3.9,0.4c1.3,0,2.6-0.2,3.9-0.6c1.3-0.4,2.3-0.9,3.2-1.6
	c0.9-0.7,1.5-1.6,2.1-2.7c0.5-1.1,0.7-2.2,0.7-3.5c0-0.8-0.1-1.6-0.4-2.3c-0.2-0.7-0.6-1.4-1.2-2c-0.5-0.6-1.1-0.9-1.6-1.2
	s-1.3-0.4-2.1-0.5c-0.8-0.1-1.8-0.1-2.7-0.1h-4.1c-0.9,0-2.1,0-3.5,0c-0.6,13.3-0.8,24.2-0.9,32.7c-0.5,0-0.8,0-1.2,0
	C374.6,56.2,374.2,56.2,373.8,56.2z"/>
<path class="st0" d="M399.8,56.2l0.6-10.1l0.5-15.1l0.1-5.2c0-1.4,0-2.7,0-3.9c0.5,0,0.8,0,1.2,0c0.4,0,0.7,0,1.2,0l-0.5,9
	l-0.6,18.6l-0.1,6.5c-0.5,0-0.8,0-1.2,0C400.7,56,400.2,56.2,399.8,56.2z"/>
<path class="st0" d="M427.6,21.3c2.3,0,4.7,0.4,6.8,1.1s4,1.9,5.6,3.5c1.6,1.6,2.7,3.5,3.4,5.6c0.7,2.1,1.1,4.3,1.1,6.7
	c0,2.6-0.4,5-1.2,7.5c-0.8,2.3-1.9,4.5-3.5,6c-1.5,1.6-3.5,2.8-5.9,3.6c-2.3,0.8-4.8,1.3-7.4,1.3c-2.5,0-4.8-0.4-7-1.2
	c-2.2-0.8-4.1-1.9-5.6-3.4c-1.5-1.5-2.6-3.3-3.4-5.5c-0.7-2.1-1.1-4.3-1.1-6.7c0-2.6,0.5-5.2,1.3-7.6c0.8-2.5,2.1-4.5,3.8-6.1
	c1.6-1.6,3.6-2.8,5.9-3.6C422.7,21.8,425.1,21.3,427.6,21.3z M427.5,23c-2.3,0-4.5,0.4-6.6,1.1c-2,0.7-3.9,1.9-5.3,3.5
	c-1.4,1.6-2.6,3.5-3.3,5.6c-0.7,2.1-1.1,4.5-1.1,6.8c0,2.2,0.4,4.3,1.1,6.5c0.7,2,1.8,3.8,3.3,5c1.4,1.3,3,2.3,5,2.9
	c1.9,0.6,4,0.8,6.1,0.8c2.2,0,4.3-0.4,6.3-0.9c2-0.7,3.8-1.8,5.2-3.3c1.4-1.5,2.6-3.4,3.2-5.5c0.6-2.1,1.1-4.3,1.1-6.8
	c0-2.2-0.4-4.5-0.9-6.5c-0.6-2-1.6-3.8-3-5.2c-1.4-1.4-3-2.5-4.9-3C431.6,23.2,429.6,23,427.5,23z"/>
<path class="st0" d="M457.2,56.2l0.4-6.2l0.9-26.5c-4.1,0-7.7,0.1-10.8,0.2c0.1-0.7,0.1-1.3,0.1-1.8c4,0,8.2,0,12.4,0h7.2h3.8
	c-0.1,0.7-0.1,1.3-0.1,1.8c-2-0.1-5-0.2-9.3-0.2h-1.4l-1.1,27.7c0,0.4,0,0.8,0,1.2v3.9c-0.5,0-0.8,0-1.2,0
	C458,56.2,457.7,56.2,457.2,56.2z"/>
<path class="st0" d="M474.7,56.2c0.4-4.6,0.6-10.4,0.8-17.6c0.2-7.2,0.4-12.8,0.4-16.7c3.8,0,7.2,0,10.4,0h9.1
	c-0.1,0.7-0.1,1.3-0.1,1.8l-2-0.1c-0.5,0-1.4-0.1-2.7-0.1c-1.3,0-2.6,0-3.8,0c-4,0-6.9,0-9,0l-0.5,14.4c2.6,0,4.8,0.1,6.9,0.1
	c2.5,0,5.6,0,9.3-0.1c-0.1,0.5-0.1,1.1-0.1,1.6l-9.5-0.1c-1.1,0-3.4,0-6.7,0.1l-0.5,15.1h7.2c2.8,0,4.8,0,5.9,0
	c1.1,0,2.6-0.1,4.5-0.2c-0.1,0.7-0.1,1.3-0.1,1.8c-4,0-6.9,0-8.8,0L474.7,56.2z"/>
<path class="st0" d="M508.3,56.2l0.4-6.2l0.9-26.5c-4.1,0-7.7,0.1-10.8,0.2c0.1-0.7,0.1-1.3,0.1-1.8c4,0,8.2,0,12.4,0h7.2h3.8
	c-0.1,0.7-0.1,1.3-0.1,1.8c-2-0.1-5-0.2-9.3-0.2h-1.4l-1.1,27.7c0,0.4,0,0.8,0,1.2v3.9c-0.5,0-0.8,0-1.2,0
	C509.2,56.2,508.8,56.2,508.3,56.2z"/>
<path class="st0" d="M5.4,65.1h9.4c2.6,0,4.7,0.2,6.6,0.6s3.3,1.1,4.5,1.8c1.2,0.7,2,1.9,2.6,3s0.8,2.7,0.8,4.3
	c0,2.5-0.5,4.6-1.2,6.3s-1.9,3.2-3.4,4.2c-1.5,1.1-3.4,1.9-5.7,2.3c-2.3,0.5-5,0.7-8.2,0.7H9.1l-2,13.5H0L5.4,65.1z M11.3,83.5
	c3.6,0,6.3-0.7,8.1-2s2.7-3.3,2.7-6c0-0.8-0.1-1.5-0.5-2.1c-0.4-0.6-0.7-1.2-1.4-1.6c-0.7-0.5-1.5-0.8-2.6-0.9
	c-1.1-0.2-2.3-0.4-3.9-0.4h-2.1l-2,13C9.6,83.5,11.3,83.5,11.3,83.5z"/>
<path class="st0" d="M27.4,91.9c0-1.1,0.1-2.1,0.2-3.4s0.5-2.5,0.8-3.6c0.4-1.2,0.9-2.3,1.6-3.5c0.7-1.2,1.5-2.1,2.6-2.9
	s2.2-1.5,3.6-2.1c1.4-0.5,2.9-0.8,4.8-0.8c1.8,0,3.2,0.2,4.5,0.7c1.3,0.5,2.3,1.2,3.2,2.1c0.8,0.9,1.4,2,1.9,3.3
	c0.5,1.3,0.6,2.8,0.6,4.5c0,1.1-0.1,2.2-0.2,3.4c-0.1,1.2-0.5,2.5-0.9,3.6c-0.5,1.2-0.9,2.3-1.6,3.4c-0.7,1.1-1.5,2.1-2.6,2.9
	c-1.1,0.8-2.2,1.5-3.5,2c-1.4,0.5-2.9,0.7-4.7,0.7c-1.6,0-3-0.2-4.3-0.7c-1.3-0.5-2.3-1.2-3.2-2c-0.8-0.8-1.5-2-2-3.3
	C27.7,94.9,27.4,93.6,27.4,91.9z M38.2,97.1c1.1,0,1.9-0.4,2.7-0.9c0.8-0.6,1.4-1.5,1.9-2.6c0.5-1.1,0.8-2.2,1.1-3.6
	c0.2-1.3,0.4-2.7,0.4-4c0-1.8-0.4-3-0.9-3.9c-0.6-0.8-1.5-1.3-2.8-1.3c-0.8,0-1.5,0.2-2.2,0.6c-0.6,0.4-1.2,0.8-1.6,1.5
	c-0.5,0.6-0.8,1.3-1.1,2.1c-0.2,0.8-0.5,1.6-0.7,2.5c-0.1,0.8-0.2,1.6-0.4,2.3s-0.1,1.4-0.1,2.1c0,1.8,0.4,3,0.9,3.9
	C35.9,96.6,36.9,97.1,38.2,97.1z"/>
<path class="st0" d="M65.3,75.6c1.4,0,2.6,0.4,3.5,0.9s1.6,1.4,2.1,2.6l2.1-14.3l7.2-1.2l-5.5,38.2h-5l-0.8-3.8
	c-0.2,0.6-0.7,1.2-1.1,1.6c-0.5,0.5-0.9,0.9-1.5,1.3s-1.3,0.7-2,0.9c-0.7,0.2-1.5,0.4-2.3,0.4c-1.4,0-2.6-0.2-3.6-0.7
	c-1.1-0.5-1.8-1.2-2.5-2c-0.7-0.8-1.2-2-1.4-3.2c-0.2-1.2-0.5-2.5-0.5-4c0-1.4,0.1-2.7,0.4-4.1c0.2-1.4,0.6-2.7,0.9-3.9
	c0.4-1.2,0.9-2.5,1.6-3.5c0.7-1.1,1.4-2,2.2-2.8c0.8-0.8,1.8-1.4,2.8-1.9C63,75.9,64.2,75.6,65.3,75.6z M61.1,89.2
	c-0.1,1.1-0.2,2-0.2,2.8c0,1.6,0.4,2.8,0.8,3.8c0.5,0.8,1.3,1.3,2.5,1.3c1.1,0,2-0.1,2.7-0.5c0.7-0.4,1.4-0.8,1.9-1.4
	c0.1-1.2,0.4-2.3,0.5-3.4c0.1-1.1,0.4-2.1,0.5-3c0.1-0.9,0.2-1.9,0.5-2.8c0.1-0.9,0.2-1.9,0.4-2.7c-0.5-0.6-1.2-1.2-1.9-1.6
	c-0.8-0.5-1.6-0.7-2.7-0.7c-0.8,0-1.6,0.2-2.1,0.8c-0.6,0.6-1.1,1.2-1.4,2c-0.4,0.8-0.6,1.8-0.8,2.7C61.3,87.4,61.2,88.3,61.1,89.2z
	"/>
<path class="st0" d="M81.4,91.9c0-1.1,0.1-2.1,0.2-3.4s0.5-2.5,0.8-3.6c0.4-1.2,0.9-2.3,1.6-3.5c0.7-1.2,1.5-2.1,2.6-2.9
	s2.2-1.5,3.6-2.1c1.4-0.5,2.9-0.8,4.8-0.8c1.8,0,3.2,0.2,4.5,0.7c1.3,0.5,2.3,1.2,3.2,2.1c0.8,0.9,1.4,2,1.9,3.3
	c0.5,1.3,0.6,2.8,0.6,4.5c0,1.1-0.1,2.2-0.2,3.4c-0.1,1.2-0.5,2.5-0.9,3.6c-0.5,1.2-0.9,2.3-1.6,3.4c-0.7,1.1-1.5,2.1-2.6,2.9
	c-1.1,0.8-2.2,1.5-3.5,2c-1.4,0.5-2.9,0.7-4.7,0.7c-1.6,0-3-0.2-4.3-0.7c-1.3-0.5-2.3-1.2-3.2-2s-1.5-2-2-3.3S81.4,93.6,81.4,91.9z
	 M92.2,97.1c1.1,0,1.9-0.4,2.7-0.9c0.8-0.6,1.4-1.5,1.9-2.6c0.5-1.1,0.8-2.2,1.1-3.6c0.2-1.3,0.4-2.7,0.4-4c0-1.8-0.4-3-0.9-3.9
	c-0.6-0.8-1.5-1.3-2.8-1.3c-0.8,0-1.5,0.2-2.2,0.6c-0.6,0.4-1.2,0.8-1.6,1.5c-0.5,0.6-0.8,1.3-1.1,2.1c-0.2,0.8-0.5,1.6-0.7,2.5
	c-0.1,0.8-0.2,1.6-0.4,2.3c-0.1,0.7-0.1,1.4-0.1,2.1c0,1.8,0.4,3,0.9,3.9C89.8,96.6,90.9,97.1,92.2,97.1z"/>
<path class="st0" d="M119.9,63.7l-5.5,38.2h-6.9l5.4-37.2L119.9,63.7z"/>
<path class="st0" d="M121.2,91.9c0-1.1,0.1-2.1,0.2-3.4c0.1-1.3,0.5-2.5,0.8-3.6c0.4-1.2,0.9-2.3,1.6-3.5c0.7-1.2,1.5-2.1,2.6-2.9
	s2.2-1.5,3.6-2.1c1.4-0.5,2.9-0.8,4.8-0.8c1.8,0,3.2,0.2,4.5,0.7c1.3,0.5,2.3,1.2,3.2,2.1c0.8,0.9,1.4,2,1.9,3.3
	c0.5,1.3,0.6,2.8,0.6,4.5c0,1.1-0.1,2.2-0.2,3.4c-0.1,1.2-0.5,2.5-0.9,3.6c-0.5,1.2-0.9,2.3-1.6,3.4s-1.5,2.1-2.6,2.9
	s-2.2,1.5-3.5,2c-1.4,0.5-2.9,0.7-4.7,0.7c-1.6,0-3-0.2-4.3-0.7c-1.3-0.5-2.3-1.2-3.2-2s-1.5-2-2-3.3S121.3,93.6,121.2,91.9z
	 M132,97.1c1.1,0,1.9-0.4,2.7-0.9c0.8-0.6,1.4-1.5,1.9-2.6c0.5-1.1,0.8-2.2,1.1-3.6c0.2-1.3,0.4-2.7,0.4-4c0-1.8-0.4-3-0.9-3.9
	c-0.6-0.8-1.5-1.3-2.8-1.3c-0.8,0-1.5,0.2-2.2,0.6c-0.6,0.4-1.2,0.8-1.6,1.5c-0.5,0.6-0.8,1.3-1.1,2.1c-0.2,0.8-0.5,1.6-0.7,2.5
	c-0.1,0.8-0.2,1.6-0.4,2.3s-0.1,1.4-0.1,2.1c0,1.8,0.4,3,0.9,3.9C129.6,96.6,130.7,97.1,132,97.1z"/>
<path class="st0" d="M170.1,83.6c0,1.4-0.2,2.6-0.6,3.5c-0.5,0.9-1.1,1.9-1.9,2.6c-0.8,0.7-2,1.4-3.3,2c-1.3,0.6-2.9,1.2-4.8,1.6
	l-4.6,1.4c-0.5,0.1-0.8,0.2-1.2,0.4c-0.4,0.1-0.6,0.2-0.7,0.4c0.8,0.4,1.8,0.6,2.9,0.8s2.3,0.5,3.5,0.7c2,0.4,3.8,0.8,5.2,1.3
	c1.4,0.5,2.6,1.1,3.5,1.8c0.9,0.7,1.6,1.4,2.1,2.2c0.5,0.8,0.7,1.8,0.7,2.7c0,1.1-0.2,2.1-0.6,3.3c-0.4,1.1-1.2,2.1-2.1,2.9
	c-1.1,0.9-2.3,1.6-4.1,2.1c-1.8,0.6-4,0.8-6.6,0.8c-2,0-3.8-0.1-5.3-0.5s-2.7-0.8-3.6-1.3c-0.9-0.6-1.6-1.2-2.1-1.9
	c-0.5-0.7-0.7-1.4-0.7-2.2c0-0.7,0-1.3,0.1-1.8c0.1-0.6,0.2-1.1,0.4-1.5s0.4-0.8,0.6-1.3c0.2-0.4,0.6-0.8,0.9-1.2
	c0.5-0.5,0.9-0.9,1.4-1.4c0.5-0.5,0.9-0.9,1.3-1.4c0,0-0.1,0-0.5-0.1c-0.2-0.1-0.6-0.4-0.9-0.6c-0.4-0.2-0.7-0.6-0.9-0.9
	c-0.2-0.4-0.5-0.8-0.5-1.4c0-0.4,0-0.7,0-1.1c0-0.4,0-0.7,0.1-0.9c0.1-0.5,0.2-0.8,0.5-1.2c0.2-0.4,0.5-0.7,0.8-0.9
	c0.4-0.2,0.7-0.6,1.3-0.8c0.5-0.2,1.1-0.5,1.8-0.7l1.9-0.6c0,0-0.1-0.1-0.4-0.2c-0.2-0.1-0.5-0.4-0.8-0.6s-0.6-0.5-0.9-0.8
	c-0.4-0.4-0.6-0.7-0.9-1.2c-0.4-0.5-0.5-0.9-0.7-1.5c-0.2-0.6-0.4-1.2-0.4-1.8c0-1.1,0.2-2.1,0.6-3c0.4-0.9,1.1-2,2-2.8
	c0.9-0.8,2-1.5,3.4-2c1.4-0.5,3-0.8,5-0.8c2.9,0,5,0.5,6.2,1.4c1.9-0.9,3.9-1.3,5.9-1.4c0.5,0,0.8-0.1,1.3-0.1s0.8-0.1,1.3-0.1
	l-0.6,5.2H170c0.1,0.1,0.1,0.4,0.2,0.6c0.1,0.2,0.1,0.5,0.2,0.8c0.1,0.2,0.1,0.6,0.1,0.8C170.1,83.1,170.1,83.4,170.1,83.6z
	 M151.2,106.6c0,0.5,0.1,0.8,0.4,1.2c0.2,0.4,0.7,0.6,1.2,0.8c0.6,0.2,1.3,0.4,2.1,0.5c0.8,0.1,1.9,0.1,3,0.1c1.1,0,1.9-0.1,2.6-0.2
	c0.7-0.1,1.3-0.4,1.8-0.7c0.5-0.4,0.8-0.7,1.1-1.2c0.2-0.5,0.4-1.1,0.4-1.9c0-0.4-0.1-0.7-0.2-1.1c-0.1-0.4-0.5-0.6-0.8-0.9
	c-0.4-0.2-0.9-0.6-1.6-0.8c-0.7-0.2-1.5-0.5-2.5-0.6l-3.9-0.7c-0.4,0.4-0.8,0.7-1.3,1.2c-0.5,0.5-0.8,0.9-1.2,1.4
	c-0.4,0.5-0.6,0.9-0.8,1.4C151.3,105.9,151.2,106.2,151.2,106.6z M156.6,84.4c0,0.5,0.1,0.9,0.2,1.4c0.1,0.5,0.4,0.9,0.6,1.4
	c0.2,0.5,0.4,0.8,0.6,1.1c0.2,0.4,0.2,0.5,0.4,0.5c1.2-0.2,2.2-0.6,2.9-0.9c0.7-0.4,1.3-0.8,1.6-1.3c0.4-0.5,0.7-0.9,0.8-1.4
	c0.1-0.5,0.2-1.1,0.2-1.5c0-2-1.2-3-3.4-3c-0.8,0-1.5,0.1-2,0.2c-0.5,0.1-0.9,0.5-1.2,0.7c-0.2,0.4-0.5,0.7-0.5,1.2
	C156.7,83.2,156.6,83.8,156.6,84.4z"/>
<path class="st0" d="M183.7,76.1c-0.1,1.2-0.4,2.5-0.5,3.8c-0.2,1.3-0.4,2.7-0.6,4c-0.2,1.4-0.4,2.7-0.6,4.1c-0.2,1.4-0.4,2.7-0.6,4
	c-0.1,0.5-0.1,0.8-0.1,1.1c0,0.2,0,0.4,0,0.6c0,0.2,0,0.4,0,0.5c0,0.9,0.4,1.6,0.8,2.2c0.6,0.6,1.3,0.8,2.1,0.9
	c0.9,0,1.8-0.2,2.5-0.6c0.7-0.4,1.3-0.8,1.9-1.4l2.8-19h7l-3.8,25.8h-4.9c-0.1-0.7-0.4-1.3-0.5-1.9c-0.1-0.6-0.4-1.3-0.5-1.9
	c-0.2,0.6-0.6,1.1-1.1,1.6c-0.5,0.5-0.9,0.9-1.4,1.4s-1.2,0.7-1.8,0.9s-1.4,0.4-2.2,0.4c-2.8,0-4.8-0.7-6.1-2.1
	c-1.3-1.4-2-3.5-2-6.3c0-0.4,0-0.8,0.1-1.3c0.1-0.5,0.1-1.1,0.2-1.5c0.4-2.6,0.7-5.2,1.1-7.6c0.4-2.5,0.7-4.9,1.1-7.3h6.9
	L183.7,76.1L183.7,76.1z"/>
<path class="st0" d="M221.2,100.1c-2.8,1.4-5.6,2.1-8.6,2.1c-1.8,0-3.3-0.2-4.7-0.7c-1.4-0.5-2.6-1.1-3.5-2
	c-0.9-0.8-1.8-1.9-2.2-3.2c-0.5-1.3-0.8-2.7-0.8-4.3c0-2.3,0.4-4.6,1.1-6.6s1.6-3.8,2.9-5.3c1.3-1.5,2.8-2.6,4.6-3.4
	c1.8-0.8,3.8-1.3,5.9-1.3c1.4,0,2.6,0.2,3.6,0.7s1.9,1.2,2.5,2c0.7,0.8,1.2,1.8,1.4,2.9c0.4,1.1,0.5,2.3,0.5,3.6
	c0,0.1,0,0.4-0.1,0.7c0,0.4-0.2,0.7-0.5,1.2c-0.2,0.5-0.7,0.8-1.3,1.3c-0.6,0.5-1.4,0.9-2.6,1.3c-1.2,0.4-2.6,0.7-4.2,0.9
	c-1.8,0.2-3.8,0.4-6.3,0.5c0,0.2,0,0.5-0.1,0.7s0,0.5,0,0.6c0,1.6,0.5,3,1.4,4s2.2,1.4,3.9,1.4c1.3,0,2.5-0.2,3.5-0.6s2.1-0.9,3-1.5
	L221.2,100.1z M209.2,86.9c1.5,0,2.7-0.1,3.8-0.1s1.9-0.2,2.6-0.4s1.2-0.2,1.5-0.4c0.4-0.1,0.6-0.2,0.8-0.5c0.2-0.2,0.2-0.2,0.4-0.5
	s0-0.2,0-0.4c0-2.9-1.2-4.3-3.5-4.3c-0.7,0-1.4,0.1-2,0.5c-0.6,0.4-1.2,0.8-1.6,1.3s-0.8,1.3-1.2,2
	C209.6,85.1,209.4,85.9,209.2,86.9z"/>
<path class="st0" d="M265.5,80.9c0,3.2-0.4,6-1.1,8.6c-0.7,2.6-1.7,4.8-3.1,6.6c-1.3,1.8-3,3.3-5,4.3c-2,1-4.3,1.5-6.9,1.5h-11.7
	l4.9-33h11.5c1.7,0,3.3,0.2,4.6,0.7c1.4,0.5,2.6,1.2,3.5,2.1c1,1,1.7,2.2,2.3,3.7C265.3,76.9,265.5,78.8,265.5,80.9z M259,81.2
	c0-2.5-0.4-4.3-1.3-5.6c-0.8-1.3-2.2-1.9-3.9-1.9h-5.1l-3.5,23.4h4.8c1.1,0,2.1-0.2,2.9-0.6c0.9-0.4,1.6-1,2.3-1.7
	c0.7-0.7,1.2-1.6,1.7-2.5c0.5-1,0.9-2.1,1.2-3.2c0.3-1.2,0.5-2.4,0.7-3.8C258.9,84,259,82.6,259,81.2z"/>
<path class="st0" d="M270.3,101.9l-6.8,0l1-7.2h6.8L270.3,101.9z"/>
<path class="st0" d="M295,101.9h-19.8l4.8-33h19.3l-0.7,4.8h-13l-1.3,8.6H296l-0.6,4.6h-11.6l-1.5,10.3h13.7L295,101.9z"/>
<path class="st0" d="M306.2,101.9l-6.8,0l1-7.2h6.8L306.2,101.9z"/>
</svg>
