<?xml version="1.0" encoding="utf-8"?>
<!-- Generator: Adobe Illustrator 22.1.0, SVG Export Plug-In . SVG Version: 6.00 Build 0)  -->
<svg version="1.1" id="Calque_1" xmlns="http://www.w3.org/2000/svg" xmlns:xlink="http://www.w3.org/1999/xlink" x="0px" y="0px"
	 viewBox="0 0 522.3 127.9" style="enable-background:new 0 0 522.3 127.9;" xml:space="preserve">
<style type="text/css">
	.st0{fill:#E6E2E4;}
</style>
<path class="st0" d="M43.2,58.6l0.4-4l1.2-15.7l0.7-9.5c0.5,0,1,0,1.4,0s0.9,0,1.4,0l0.9,2.9c0.3,0.8,0.8,2.4,1.7,4.8l5.6,15.7
	l1.5,4.1l11.3-25c0.3-0.6,0.6-1.5,1-2.6c0.5,0,0.9,0,1.4,0c0.4,0,0.9,0,1.4,0l-0.2,12.4c0,2.8,0,4.9,0,6.2c0,4.5,0,8,0.1,10.6
	c-0.4,0-0.7,0-1,0s-0.7,0-1,0l0.4-18.8c0-2.3,0.1-4.3,0.1-6v-2.8l-3.6,8l-8.7,19.7c-0.3,0-0.7,0-1.1,0c-0.4,0-0.8,0-1.1,0l-9.3-25.8
	L47,31.1l-0.2,2.5c-0.1,0.7-0.2,2.1-0.3,4.2l-1.1,15.7c0,0.7-0.1,1.3-0.1,2s-0.1,1.7-0.1,3c-0.4,0-0.7,0-1,0S43.6,58.6,43.2,58.6z"
	/>
<path class="st0" d="M80.6,39.2c0.1-0.5,0.2-1,0.2-1.7c1.5-0.4,2.7-0.7,3.8-0.8c1.1-0.1,2.2-0.2,3.3-0.2c1.3,0,2.4,0.1,3.5,0.3
	s2,0.6,2.7,1.1s1.1,1.1,1.4,1.8c0.2,0.7,0.3,1.4,0.3,2.1c0,0.7,0,1.6-0.1,2.7c0,1.1-0.1,2.3-0.2,3.5c-0.1,1.3-0.2,2.8-0.2,4.7
	c-0.1,1.9-0.1,3.2-0.1,4.1v1.8c-0.4,0-0.7,0-0.9,0c-0.2,0-0.5,0-0.9,0c0.2-2.2,0.3-4,0.4-5.3c0.1-1.4,0.1-2.8,0.2-4.4
	c0-1.6,0.1-3,0.2-4.4c-0.4,0.4-0.8,0.6-1,0.8s-0.5,0.3-0.8,0.5c-0.3,0.1-0.6,0.3-1,0.4c-0.4,0.1-0.8,0.3-1.1,0.4
	c-0.3,0.1-1.1,0.3-2.4,0.7c-1.3,0.3-2.2,0.6-2.7,0.8c-1.2,0.4-2.2,0.8-2.8,1.1c-0.7,0.4-1.3,0.8-1.8,1.3c-0.4,0.4-0.7,0.8-0.9,1.3
	c-0.2,0.5-0.3,1.1-0.3,1.7c0,0.9,0.3,1.7,0.8,2.4c0.6,0.7,1.3,1.2,2.1,1.4s1.9,0.4,3.1,0.4c0.6,0,1.2,0,1.7-0.1
	c0.6-0.1,1.1-0.1,1.6-0.3s1.2-0.3,2.1-0.6c-0.1,0.5-0.2,1.1-0.3,1.6c-1.2,0.2-2.1,0.4-2.8,0.4c-0.7,0.1-1.4,0.1-2,0.1
	c-1.2,0-2.3-0.1-3.3-0.3s-1.9-0.5-2.5-1.1s-1.2-1.2-1.5-1.9s-0.5-1.5-0.5-2.2c0-0.6,0.1-1.2,0.3-1.7s0.5-1.1,0.9-1.6
	c0.3-0.4,0.8-0.8,1.4-1.2c0.7-0.5,1.4-0.8,2.2-1.2c0.9-0.4,2-0.7,3-1c0.3-0.1,1.5-0.4,3.5-0.9c0.9-0.2,1.8-0.5,2.6-0.9
	c0.8-0.4,1.5-0.9,1.9-1.5c0.5-0.6,0.7-1.3,0.7-2c0-0.5-0.1-1-0.3-1.4S93.5,39,93,38.6c-0.5-0.4-1.2-0.7-2-0.8
	c-0.8-0.2-1.7-0.2-2.6-0.2c-1,0-2,0.1-2.9,0.2s-1.7,0.3-2.3,0.5C82.4,38.6,81.6,38.9,80.6,39.2z"/>
<path class="st0" d="M120,58.6c-0.3,0-0.5,0-0.8,0c-0.2,0-0.5,0-0.8,0l0.2-4.6c-0.3,0.7-0.6,1.3-0.8,1.6c-0.2,0.3-0.5,0.7-0.8,1
	s-0.7,0.7-1.2,1s-1.1,0.6-1.7,0.8s-1.4,0.4-2.1,0.5s-1.4,0.1-2.1,0.1c-1.2,0-2.4-0.1-3.4-0.4s-2-0.7-2.8-1.4s-1.4-1.5-1.7-2.3
	c-0.3-0.9-0.4-1.9-0.4-3c0-0.9,0.1-3,0.3-6.4c0.2-3.4,0.3-6.2,0.3-8.4c0.4,0,0.6,0,0.8,0c0.2,0,0.5,0,0.8,0
	c-0.1,1.2-0.3,3.8-0.5,7.6c-0.2,3.9-0.3,6.3-0.3,7.3c0,1.1,0.1,2,0.4,2.8s0.8,1.4,1.5,1.9s1.5,0.8,2.4,1s1.8,0.3,2.8,0.3
	s1.9-0.1,2.8-0.4c0.9-0.2,1.7-0.6,2.3-0.9c0.6-0.4,1.1-0.8,1.6-1.4c0.5-0.6,1-1.4,1.3-2.2c0.3-0.7,0.6-1.6,0.7-2.7
	c0.2-1.1,0.3-3,0.4-5.9c0.1-2.7,0.2-5.2,0.2-7.4c0.4,0,0.7,0,0.9,0s0.5,0,0.8,0l-0.8,15l-0.1,3.2C120,56.5,120,57.6,120,58.6z"/>
<path class="st0" d="M144.7,58.6c-0.4,0-0.7,0-0.8,0c-0.2,0-0.5,0-0.9,0l0.3-5.4c-0.3,0.8-0.7,1.5-1,2s-0.7,1-1.1,1.4
	c-0.4,0.5-1,0.9-1.6,1.2s-1.4,0.7-2.2,0.9s-1.7,0.3-2.6,0.3c-1.4,0-2.7-0.2-3.9-0.7s-2.2-1.2-3.1-2.1s-1.4-2-1.8-3.2
	s-0.5-2.5-0.5-3.8c0-1.8,0.3-3.6,1-5.2s1.6-3.1,2.9-4.2s2.7-2,4.3-2.4c1.6-0.5,3.3-0.7,5.1-0.7c1.5,0,3.1,0.2,4.8,0.5
	c0.1-1.4,0.1-2.7,0.1-3.9c0-1.1,0-2.3-0.1-3.7c0.4,0,0.7,0,0.9,0s0.5,0,0.9,0c-0.2,2.7-0.3,5.5-0.4,8.4l-0.3,10.4
	c-0.1,4-0.1,6.6-0.1,7.8v2.4H144.7z M143.6,38.5c-1-0.3-1.9-0.5-2.6-0.6c-0.7-0.1-1.4-0.1-2.1-0.1c-1.6,0-3.1,0.2-4.6,0.7
	s-2.7,1.2-3.8,2.2s-1.9,2.3-2.5,3.9s-0.9,3.1-0.9,4.6c0,1.7,0.3,3.2,1,4.6c0.7,1.4,1.6,2.4,2.8,3.1c1.2,0.7,2.5,1,4,1
	c0.9,0,1.7-0.1,2.4-0.3s1.4-0.5,1.9-0.9s1.1-0.9,1.6-1.5s1-1.3,1.4-2.2c0.4-0.8,0.7-1.8,0.9-2.8s0.3-2.5,0.4-4.6L143.6,38.5z"/>
<path class="st0" d="M183.9,56.3c-0.1,0.5-0.2,1.1-0.3,1.8c-1.5,0.4-2.8,0.6-4.1,0.7s-2.4,0.2-3.4,0.2c-2.1,0-4.1-0.3-5.9-1
	c-1.9-0.7-3.5-1.7-4.8-3s-2.3-2.9-3-4.7c-0.6-1.8-0.9-3.7-0.9-5.7c0-2.2,0.4-4.4,1.1-6.5c0.7-2.1,1.8-3.8,3.2-5.2
	c1.4-1.4,3.1-2.4,5.1-3.1s4.1-1,6.3-1c0.8,0,1.6,0,2.4,0.1c0.9,0.1,1.6,0.1,2.2,0.2s1.3,0.2,2.3,0.4c0,0.6,0.1,1.2,0.2,1.8
	c-1.6-0.5-2.9-0.9-4.1-1c-1.1-0.2-2.2-0.3-3.3-0.3c-1.8,0-3.6,0.3-5.3,0.9s-3.2,1.5-4.5,2.7c-1.3,1.3-2.3,2.8-3,4.7s-1,3.8-1,5.8
	c0,1.9,0.3,3.7,0.9,5.5c0.6,1.7,1.4,3.2,2.6,4.4c1.2,1.2,2.6,2.1,4.2,2.7c1.6,0.6,3.4,0.9,5.3,0.9C178.3,57.7,181,57.2,183.9,56.3z"
	/>
<path class="st0" d="M189.1,58.6c0.3-6.1,0.6-11.9,0.8-17.2s0.3-9.3,0.3-12c0.4,0,0.7,0,1,0s0.6,0,0.9,0l-0.6,13.7h19.9l0.4-10.7
	c0-0.6,0-1.6,0-2.9c0.4,0,0.7,0,1,0s0.6,0,0.9,0c-0.5,8.8-0.9,18.6-1.1,29.2c-0.4,0-0.7,0-0.9,0c-0.3,0-0.6,0-1,0
	c0.3-5,0.6-9.7,0.6-14.2h-19.9L191,54.9v3.7c-0.4,0-0.7,0-0.9,0C189.8,58.6,189.5,58.6,189.1,58.6z"/>
<path class="st0" d="M219.8,58.6c0.3-3.9,0.5-8.9,0.7-15s0.3-10.9,0.3-14.2c3.2,0,6.1,0,8.9,0h7.8c-0.1,0.6-0.1,1.1-0.1,1.5
	l-1.7-0.1c-0.4,0-1.2-0.1-2.3-0.1s-2.2,0-3.2,0c-3.4,0-5.9,0-7.7,0L222.1,43c2.2,0,4.1,0.1,5.9,0.1c2.1,0,4.8,0,7.9-0.1
	c-0.1,0.4-0.1,0.9-0.1,1.4l-8.1-0.1c-0.9,0-2.9,0-5.7,0.1l-0.4,12.9h6.1c2.4,0,4.1,0,5,0s2.2-0.1,3.8-0.2c-0.1,0.6-0.1,1.1-0.1,1.5
	c-3.4,0-5.9,0-7.5,0L219.8,58.6z"/>
<path class="st0" d="M242.7,58.6l0.5-8.4l0.6-17.3l0.1-3.4c0.3,0,0.8,0,1.3,0s1,0,1.3,0c0.7,1.2,1.3,2.1,1.8,2.8s1.5,2.1,3,4.3
	l11,15.8c1.1,1.6,2.2,3.2,3.4,4.8l0.9-24.4l0.1-3.3c0.4,0,0.7,0,0.9,0c0.2,0,0.5,0,0.9,0l-0.4,6.7l-0.7,18.3l-0.1,4.2
	c-0.5,0-0.9,0-1.3,0s-0.8,0-1.3,0l-3.9-5.8l-13.6-19.5l-1.6-2.2c0,0.7-0.1,1.5-0.1,2.2l-0.8,20l-0.1,5.2c-0.4,0-0.7,0-0.9,0
	S243.1,58.6,242.7,58.6z"/>
<path class="st0" d="M275.5,29.4c0.4,0,0.7,0,1,0s0.6,0,1,0l-1,17.5v1.6v0.4c0,1.7,0.2,3.1,0.7,4.2c0.4,1.1,1.2,2,2.1,2.7
	c1,0.7,2,1.2,3.2,1.5s2.4,0.4,3.8,0.4c1.3,0,2.6-0.1,3.8-0.4c0.9-0.2,1.8-0.5,2.5-0.9c0.6-0.3,1.2-0.7,1.7-1.2s0.9-1.1,1.3-1.7
	c0.3-0.6,0.6-1.3,0.8-2c0.3-1.4,0.5-3,0.6-5l0.4-8.8c0.1-3.3,0.2-6.1,0.2-8.2c0.4,0,0.7,0,0.9,0s0.6,0,0.9,0l-0.6,9.7l-0.4,8.6
	c-0.1,1.9-0.3,3.4-0.6,4.7c-0.2,0.7-0.5,1.4-0.9,2.1c-0.4,0.6-0.8,1.2-1.3,1.6c-0.6,0.5-1.3,1-2.1,1.4c-0.9,0.5-1.9,0.8-2.9,1
	c-1.4,0.3-2.8,0.4-4.2,0.4c-1.6,0-3-0.2-4.3-0.5c-1.1-0.3-2.2-0.7-3.1-1.3c-1-0.6-1.7-1.3-2.3-2c-0.5-0.6-0.9-1.4-1.2-2.4
	c-0.3-1-0.4-2.2-0.4-3.6c0-1.3,0-2.7,0.1-4.4l0.5-11.4C275.5,32.1,275.5,30.8,275.5,29.4z"/>
<path class="st0" d="M311.1,58.6l0.3-5.3l0.8-22.6c-3.5,0-6.6,0.1-9.2,0.2c0.1-0.6,0.1-1.1,0.1-1.5c3.4,0,7,0,10.6,0h6.1h3.2
	c-0.1,0.6-0.1,1.1-0.1,1.5c-1.7-0.1-4.3-0.2-7.9-0.2h-1.2L313,54.3c0,0.3,0,0.7,0,1v3.3c-0.4,0-0.7,0-1,0
	C311.8,58.6,311.5,58.6,311.1,58.6z"/>
<path class="st0" d="M322.7,48.1c0.1-0.6,0.1-1.1,0.1-1.5c1.6,0.1,3.3,0.1,5.1,0.1c1.8,0,3.5,0,5.2-0.1c-0.1,0.6-0.1,1.1-0.1,1.5
	c-1.6-0.1-3.3-0.1-5.2-0.1C326.1,48,324.4,48,322.7,48.1z"/>
<path class="st0" d="M336.6,58.6l0.5-7l0.6-18.4c0-0.7,0-1.4,0-2.1v-1.8h4.4h4.6c1.5,0,2.6,0.1,3.3,0.2c0.7,0.1,1.4,0.4,2.1,0.7
	c0.6,0.3,1.2,0.8,1.7,1.3s0.9,1.2,1.1,2c0.2,0.8,0.4,1.6,0.4,2.4c0,0.7-0.1,1.4-0.2,2s-0.4,1.3-0.8,1.9c-0.4,0.6-0.8,1.1-1.3,1.6
	c-0.5,0.4-0.9,0.8-1.4,1.1s-1,0.5-1.8,0.8c0.7,0.2,1.3,0.4,1.7,0.6c0.4,0.2,0.9,0.4,1.3,0.7s0.8,0.6,1.2,1c0.3,0.4,0.6,0.8,0.9,1.3
	c0.2,0.5,0.4,1,0.6,1.6s0.2,1.2,0.2,1.9c0,1.3-0.3,2.5-0.8,3.6s-1.3,2-2.4,2.7s-2.2,1.2-3.4,1.4s-2.5,0.3-4,0.3h-5.2L336.6,58.6z
	 M338.5,57.2h6.2c2,0,3.4-0.1,4.3-0.3s1.7-0.6,2.5-1.1s1.4-1.3,1.9-2.3s0.7-2.1,0.7-3.2c0-1.1-0.2-2-0.7-2.9
	c-0.4-0.8-1.1-1.5-1.8-2.1c-0.8-0.5-1.6-0.9-2.5-1c-0.9-0.2-2-0.2-3.2-0.2h-7L338.5,57.2z M339,42.8h4.2c2.2,0,3.7-0.1,4.4-0.2
	c1-0.2,1.9-0.5,2.7-0.9c0.6-0.3,1.1-0.8,1.6-1.3c0.5-0.6,0.9-1.3,1.2-2.1c0.3-0.8,0.4-1.6,0.4-2.5c0-0.8-0.1-1.6-0.4-2.2
	c-0.3-0.6-0.7-1.2-1.2-1.6c-0.5-0.5-1.2-0.8-1.9-1s-1.8-0.3-3.3-0.3h-7.4L339,42.8z"/>
<path class="st0" d="M360.9,58.6l0.3-5.2l0.6-16.1l0.1-4.6v-3.3h4.3h4.9c2,0,3.5,0.3,4.4,0.8s1.7,1.3,2.2,2.3s0.8,2.1,0.8,3.4
	c0,1.6-0.4,3.1-1.2,4.4s-1.9,2.3-3.3,3s-3,1-4.8,1c-0.2,0-0.6,0-1,0l10.2,14.2c-0.4,0-0.7,0-1.1,0s-0.8,0-1.1,0l-2.8-4.2l-8.2-11.5
	c1.3,0.2,2.4,0.3,3.3,0.3c1.1,0,2.2-0.2,3.3-0.5s2-0.8,2.7-1.4c0.8-0.6,1.3-1.4,1.8-2.3c0.4-0.9,0.6-1.9,0.6-3c0-0.7-0.1-1.4-0.3-2
	c-0.2-0.6-0.5-1.2-1-1.7c-0.4-0.5-0.9-0.8-1.4-1s-1.1-0.3-1.8-0.4c-0.7-0.1-1.5-0.1-2.3-0.1h-3.5c-0.8,0-1.8,0-3,0
	c-0.5,11.3-0.7,20.6-0.8,27.9c-0.4,0-0.7,0-1,0C361.6,58.6,361.2,58.6,360.9,58.6z"/>
<path class="st0" d="M383.1,58.6l0.5-8.6l0.4-12.9l0.1-4.4c0-1.2,0-2.3,0-3.3c0.4,0,0.7,0,1,0s0.6,0,1,0l-0.4,7.7L385.2,53l-0.1,5.5
	c-0.4,0-0.7,0-1,0S383.4,58.6,383.1,58.6z"/>
<path class="st0" d="M406.8,28.9c2,0,4,0.3,5.8,0.9s3.4,1.6,4.8,3c1.4,1.4,2.3,3,2.9,4.8s0.9,3.7,0.9,5.7c0,2.2-0.3,4.3-1,6.4
	c-0.7,2-1.6,3.8-3,5.1c-1.3,1.4-3,2.4-5,3.1c-2,0.7-4.1,1.1-6.3,1.1c-2.1,0-4.1-0.3-6-1s-3.5-1.6-4.8-2.9c-1.3-1.3-2.2-2.8-2.9-4.7
	c-0.6-1.8-0.9-3.7-0.9-5.7c0-2.2,0.4-4.4,1.1-6.5s1.8-3.8,3.2-5.2c1.4-1.4,3.1-2.4,5-3.1C402.6,29.3,404.6,28.9,406.8,28.9z
	 M406.7,30.3c-2,0-3.8,0.3-5.6,0.9c-1.7,0.6-3.3,1.6-4.5,3s-2.2,3-2.8,4.8s-0.9,3.8-0.9,5.8c0,1.9,0.3,3.7,0.9,5.5
	c0.6,1.7,1.5,3.2,2.8,4.3c1.2,1.1,2.6,2,4.3,2.5c1.6,0.5,3.4,0.7,5.2,0.7c1.9,0,3.7-0.3,5.4-0.8c1.7-0.6,3.2-1.5,4.4-2.8
	c1.2-1.3,2.2-2.9,2.7-4.7s0.9-3.7,0.9-5.8c0-1.9-0.3-3.8-0.8-5.5s-1.4-3.2-2.6-4.4s-2.6-2.1-4.2-2.6
	C410.2,30.5,408.5,30.3,406.7,30.3z"/>
<path class="st0" d="M432,58.6l0.3-5.3l0.8-22.6c-3.5,0-6.6,0.1-9.2,0.2c0.1-0.6,0.1-1.1,0.1-1.5c3.4,0,7,0,10.6,0h6.1h3.2
	c-0.1,0.6-0.1,1.1-0.1,1.5c-1.7-0.1-4.3-0.2-7.9-0.2h-1.2l-0.9,23.6c0,0.3,0,0.7,0,1v3.3c-0.4,0-0.7,0-1,0
	C432.7,58.6,432.4,58.6,432,58.6z"/>
<path class="st0" d="M446.9,58.6c0.3-3.9,0.5-8.9,0.7-15s0.3-10.9,0.3-14.2c3.2,0,6.1,0,8.9,0h7.8c-0.1,0.6-0.1,1.1-0.1,1.5
	l-1.7-0.1c-0.4,0-1.2-0.1-2.3-0.1c-1.1,0-2.2,0-3.2,0c-3.4,0-5.9,0-7.7,0L449.2,43c2.2,0,4.1,0.1,5.9,0.1c2.1,0,4.8,0,7.9-0.1
	c-0.1,0.4-0.1,0.9-0.1,1.4l-8.1-0.1c-0.9,0-2.9,0-5.7,0.1l-0.4,12.9h6.1c2.4,0,4.1,0,5,0s2.2-0.1,3.8-0.2c-0.1,0.6-0.1,1.1-0.1,1.5
	c-3.4,0-5.9,0-7.5,0L446.9,58.6z"/>
<path class="st0" d="M475.6,58.6l0.3-5.3l0.8-22.6c-3.5,0-6.6,0.1-9.2,0.2c0.1-0.6,0.1-1.1,0.1-1.5c3.4,0,7,0,10.6,0h6.1h3.2
	c-0.1,0.6-0.1,1.1-0.1,1.5c-1.7-0.1-4.3-0.2-7.9-0.2h-1.2l-0.9,23.6c0,0.3,0,0.7,0,1v3.3c-0.4,0-0.7,0-1,0
	C476.3,58.6,476,58.6,475.6,58.6z"/>
<path class="st0" d="M46.8,62.2h8c2.2,0,4,0.2,5.6,0.5s2.8,0.9,3.8,1.5c1,0.6,1.7,1.6,2.2,2.6s0.7,2.3,0.7,3.7c0,2.1-0.4,3.9-1,5.4
	s-1.6,2.7-2.9,3.6s-2.9,1.6-4.9,2s-4.3,0.6-7,0.6H50l-1.7,11.5h-6.1L46.8,62.2z M51.8,77.9c3.1,0,5.4-0.6,6.9-1.7s2.3-2.8,2.3-5.1
	c0-0.7-0.1-1.3-0.4-1.8s-0.6-1-1.2-1.4s-1.3-0.7-2.2-0.8c-0.9-0.2-2-0.3-3.3-0.3h-1.8l-1.7,11.1C50.4,77.9,51.8,77.9,51.8,77.9z"/>
<path class="st0" d="M65.6,85.1c0-0.9,0.1-1.8,0.2-2.9s0.4-2.1,0.7-3.1s0.8-2,1.4-3s1.3-1.8,2.2-2.5s1.9-1.3,3.1-1.8
	c1.2-0.4,2.5-0.7,4.1-0.7c1.5,0,2.7,0.2,3.8,0.6s2,1,2.7,1.8s1.2,1.7,1.6,2.8c0.4,1.1,0.5,2.4,0.5,3.8c0,0.9-0.1,1.9-0.2,2.9
	s-0.4,2.1-0.8,3.1s-0.8,2-1.4,2.9s-1.3,1.8-2.2,2.5c-0.9,0.7-1.9,1.3-3,1.7c-1.2,0.4-2.5,0.6-4,0.6c-1.4,0-2.6-0.2-3.7-0.6
	s-2-1-2.7-1.7s-1.3-1.7-1.7-2.8S65.6,86.5,65.6,85.1z M74.8,89.5c0.9,0,1.6-0.3,2.3-0.8s1.2-1.3,1.6-2.2c0.4-0.9,0.7-1.9,0.9-3.1
	c0.2-1.1,0.3-2.3,0.3-3.4c0-1.5-0.3-2.6-0.8-3.3s-1.3-1.1-2.4-1.1c-0.7,0-1.3,0.2-1.9,0.5c-0.5,0.3-1,0.7-1.4,1.3
	c-0.4,0.5-0.7,1.1-0.9,1.8c-0.2,0.7-0.4,1.4-0.6,2.1c-0.1,0.7-0.2,1.4-0.3,2s-0.1,1.2-0.1,1.8c0,1.5,0.3,2.6,0.8,3.3
	S73.7,89.5,74.8,89.5z"/>
<path class="st0" d="M97.9,71.2c1.2,0,2.2,0.3,3,0.8s1.4,1.2,1.8,2.2l1.8-12.2l6.1-1l-4.7,32.6h-4.3l-0.7-3.2
	c-0.2,0.5-0.6,1-0.9,1.4c-0.4,0.4-0.8,0.8-1.3,1.1s-1.1,0.6-1.7,0.8c-0.6,0.2-1.3,0.3-2,0.3c-1.2,0-2.2-0.2-3.1-0.6s-1.5-1-2.1-1.7
	s-1-1.7-1.2-2.7s-0.4-2.1-0.4-3.4c0-1.2,0.1-2.3,0.3-3.5c0.2-1.2,0.5-2.3,0.8-3.3s0.8-2.1,1.4-3s1.2-1.7,1.9-2.4
	c0.7-0.7,1.5-1.2,2.4-1.6C95.9,71.4,96.9,71.2,97.9,71.2z M94.3,82.8c-0.1,0.9-0.2,1.7-0.2,2.4c0,1.4,0.3,2.4,0.7,3.2
	c0.4,0.7,1.1,1.1,2.1,1.1c0.9,0,1.7-0.1,2.3-0.4s1.2-0.7,1.6-1.2c0.1-1,0.3-2,0.4-2.9s0.3-1.8,0.4-2.6c0.1-0.8,0.2-1.6,0.4-2.4
	c0.1-0.8,0.2-1.6,0.3-2.3c-0.4-0.5-1-1-1.6-1.4c-0.7-0.4-1.4-0.6-2.3-0.6c-0.7,0-1.4,0.2-1.8,0.7c-0.5,0.5-0.9,1-1.2,1.7
	c-0.3,0.7-0.5,1.5-0.7,2.3C94.5,81.2,94.4,82,94.3,82.8z"/>
<path class="st0" d="M111.6,85.1c0-0.9,0.1-1.8,0.2-2.9s0.4-2.1,0.7-3.1s0.8-2,1.4-3s1.3-1.8,2.2-2.5s1.9-1.3,3.1-1.8
	c1.2-0.4,2.5-0.7,4.1-0.7c1.5,0,2.7,0.2,3.8,0.6s2,1,2.7,1.8s1.2,1.7,1.6,2.8c0.4,1.1,0.5,2.4,0.5,3.8c0,0.9-0.1,1.9-0.2,2.9
	s-0.4,2.1-0.8,3.1s-0.8,2-1.4,2.9s-1.3,1.8-2.2,2.5c-0.9,0.7-1.9,1.3-3,1.7c-1.2,0.4-2.5,0.6-4,0.6c-1.4,0-2.6-0.2-3.7-0.6
	s-2-1-2.7-1.7s-1.3-1.7-1.7-2.8S111.6,86.5,111.6,85.1z M120.8,89.5c0.9,0,1.6-0.3,2.3-0.8s1.2-1.3,1.6-2.2c0.4-0.9,0.7-1.9,0.9-3.1
	c0.2-1.1,0.3-2.3,0.3-3.4c0-1.5-0.3-2.6-0.8-3.3s-1.3-1.1-2.4-1.1c-0.7,0-1.3,0.2-1.9,0.5c-0.5,0.3-1,0.7-1.4,1.3
	c-0.4,0.5-0.7,1.1-0.9,1.8c-0.2,0.7-0.4,1.4-0.6,2.1c-0.1,0.7-0.2,1.4-0.3,2s-0.1,1.2-0.1,1.8c0,1.5,0.3,2.6,0.8,3.3
	S119.7,89.5,120.8,89.5z"/>
<path class="st0" d="M144.4,61l-4.7,32.6h-5.9l4.6-31.7L144.4,61z"/>
<path class="st0" d="M145.5,85.1c0-0.9,0.1-1.8,0.2-2.9s0.4-2.1,0.7-3.1s0.8-2,1.4-3c0.6-1,1.3-1.8,2.2-2.5s1.9-1.3,3.1-1.8
	c1.2-0.4,2.5-0.7,4.1-0.7c1.5,0,2.7,0.2,3.8,0.6s2,1,2.7,1.8s1.2,1.7,1.6,2.8c0.4,1.1,0.5,2.4,0.5,3.8c0,0.9-0.1,1.9-0.2,2.9
	s-0.4,2.1-0.8,3.1s-0.8,2-1.4,2.9s-1.3,1.8-2.2,2.5s-1.9,1.3-3,1.7c-1.2,0.4-2.5,0.6-4,0.6c-1.4,0-2.6-0.2-3.7-0.6s-2-1-2.7-1.7
	s-1.3-1.7-1.7-2.8S145.6,86.5,145.5,85.1z M154.7,89.5c0.9,0,1.6-0.3,2.3-0.8s1.2-1.3,1.6-2.2c0.4-0.9,0.7-1.9,0.9-3.1
	c0.2-1.1,0.3-2.3,0.3-3.4c0-1.5-0.3-2.6-0.8-3.3s-1.3-1.1-2.4-1.1c-0.7,0-1.3,0.2-1.9,0.5c-0.5,0.3-1,0.7-1.4,1.3
	c-0.4,0.5-0.7,1.1-0.9,1.8c-0.2,0.7-0.4,1.4-0.6,2.1c-0.1,0.7-0.2,1.4-0.3,2s-0.1,1.2-0.1,1.8c0,1.5,0.3,2.6,0.8,3.3
	S153.6,89.5,154.7,89.5z"/>
<path class="st0" d="M187.2,78c0,1.2-0.2,2.2-0.5,3c-0.4,0.8-0.9,1.6-1.6,2.2s-1.7,1.2-2.8,1.7s-2.5,1-4.1,1.4l-3.9,1.2
	c-0.4,0.1-0.7,0.2-1,0.3c-0.3,0.1-0.5,0.2-0.6,0.3c0.7,0.3,1.5,0.5,2.5,0.7s2,0.4,3,0.6c1.7,0.3,3.2,0.7,4.4,1.1s2.2,0.9,3,1.5
	s1.4,1.2,1.8,1.9c0.4,0.7,0.6,1.5,0.6,2.3c0,0.9-0.2,1.8-0.5,2.8c-0.3,0.9-1,1.8-1.8,2.5c-0.9,0.8-2,1.4-3.5,1.8
	c-1.5,0.5-3.4,0.7-5.6,0.7c-1.7,0-3.2-0.1-4.5-0.4s-2.3-0.7-3.1-1.1c-0.8-0.5-1.4-1-1.8-1.6c-0.4-0.6-0.6-1.2-0.6-1.9
	c0-0.6,0-1.1,0.1-1.5c0.1-0.5,0.2-0.9,0.3-1.3s0.3-0.7,0.5-1.1c0.2-0.3,0.5-0.7,0.8-1c0.4-0.4,0.8-0.8,1.2-1.2
	c0.4-0.4,0.8-0.8,1.1-1.2c0,0-0.1,0-0.4-0.1c-0.2-0.1-0.5-0.3-0.8-0.5s-0.6-0.5-0.8-0.8s-0.4-0.7-0.4-1.2c0-0.3,0-0.6,0-0.9
	s0-0.6,0.1-0.8c0.1-0.4,0.2-0.7,0.4-1s0.4-0.6,0.7-0.8c0.3-0.2,0.6-0.5,1.1-0.7c0.4-0.2,0.9-0.4,1.5-0.6l1.6-0.5
	c0,0-0.1-0.1-0.3-0.2s-0.4-0.3-0.7-0.5s-0.5-0.4-0.8-0.7c-0.3-0.3-0.5-0.6-0.8-1s-0.4-0.8-0.6-1.3s-0.3-1-0.3-1.5
	c0-0.9,0.2-1.8,0.5-2.6s0.9-1.7,1.7-2.4c0.8-0.7,1.7-1.3,2.9-1.7c1.2-0.4,2.6-0.7,4.3-0.7c2.5,0,4.3,0.4,5.3,1.2
	c1.6-0.8,3.3-1.1,5-1.2c0.4,0,0.7-0.1,1.1-0.1s0.7-0.1,1.1-0.1l-0.5,4.4h-4.4c0.1,0.1,0.1,0.3,0.2,0.5c0.1,0.2,0.1,0.4,0.2,0.7
	c0.1,0.2,0.1,0.5,0.1,0.7C187.2,77.6,187.2,77.8,187.2,78z M171.1,97.6c0,0.4,0.1,0.7,0.3,1s0.6,0.5,1,0.7c0.5,0.2,1.1,0.3,1.8,0.4
	s1.6,0.1,2.6,0.1c0.9,0,1.6-0.1,2.2-0.2c0.6-0.1,1.1-0.3,1.5-0.6s0.7-0.6,0.9-1s0.3-0.9,0.3-1.6c0-0.3-0.1-0.6-0.2-0.9
	s-0.4-0.5-0.7-0.8c-0.3-0.2-0.8-0.5-1.4-0.7c-0.6-0.2-1.3-0.4-2.1-0.5l-3.3-0.6c-0.3,0.3-0.7,0.6-1.1,1c-0.4,0.4-0.7,0.8-1,1.2
	c-0.3,0.4-0.5,0.8-0.7,1.2C171.2,97,171.1,97.3,171.1,97.6z M175.7,78.7c0,0.4,0.1,0.8,0.2,1.2c0.1,0.4,0.3,0.8,0.5,1.2
	c0.2,0.4,0.3,0.7,0.5,0.9c0.2,0.3,0.2,0.4,0.3,0.4c1-0.2,1.9-0.5,2.5-0.8s1.1-0.7,1.4-1.1s0.6-0.8,0.7-1.2s0.2-0.9,0.2-1.3
	c0-1.7-1-2.6-2.9-2.6c-0.7,0-1.3,0.1-1.7,0.2s-0.8,0.4-1,0.6c-0.2,0.3-0.4,0.6-0.4,1C175.8,77.7,175.7,78.2,175.7,78.7z"/>
<path class="st0" d="M198.8,71.6c-0.1,1-0.3,2.1-0.4,3.2c-0.2,1.1-0.3,2.3-0.5,3.4c-0.2,1.2-0.3,2.3-0.5,3.5s-0.3,2.3-0.5,3.4
	c-0.1,0.4-0.1,0.7-0.1,0.9c0,0.2,0,0.3,0,0.5s0,0.3,0,0.4c0,0.8,0.3,1.4,0.7,1.9c0.5,0.5,1.1,0.7,1.8,0.8c0.8,0,1.5-0.2,2.1-0.5
	s1.1-0.7,1.6-1.2l2.4-16.2h6l-3.2,22H204c-0.1-0.6-0.3-1.1-0.4-1.6c-0.1-0.5-0.3-1.1-0.4-1.6c-0.2,0.5-0.5,0.9-0.9,1.4
	c-0.4,0.4-0.8,0.8-1.2,1.2s-1,0.6-1.5,0.8s-1.2,0.3-1.9,0.3c-2.4,0-4.1-0.6-5.2-1.8s-1.7-3-1.7-5.4c0-0.3,0-0.7,0.1-1.1
	s0.1-0.9,0.2-1.3c0.3-2.2,0.6-4.4,0.9-6.5s0.6-4.2,0.9-6.2h5.9V71.6z"/>
<path class="st0" d="M230.8,92.1c-2.4,1.2-4.8,1.8-7.3,1.8c-1.5,0-2.8-0.2-4-0.6s-2.2-0.9-3-1.7c-0.8-0.7-1.5-1.6-1.9-2.7
	s-0.7-2.3-0.7-3.7c0-2,0.3-3.9,0.9-5.6s1.4-3.2,2.5-4.5s2.4-2.2,3.9-2.9s3.2-1.1,5-1.1c1.2,0,2.2,0.2,3.1,0.6s1.6,1,2.1,1.7
	c0.6,0.7,1,1.5,1.2,2.5c0.3,0.9,0.4,2,0.4,3.1c0,0.1,0,0.3-0.1,0.6c0,0.3-0.2,0.6-0.4,1s-0.6,0.7-1.1,1.1s-1.2,0.8-2.2,1.1
	s-2.2,0.6-3.6,0.8c-1.5,0.2-3.2,0.3-5.4,0.4c0,0.2,0,0.4-0.1,0.6s0,0.4,0,0.5c0,1.4,0.4,2.6,1.2,3.4s1.9,1.2,3.3,1.2
	c1.1,0,2.1-0.2,3-0.5s1.8-0.8,2.6-1.3L230.8,92.1z M220.6,80.8c1.3,0,2.3-0.1,3.2-0.1s1.6-0.2,2.2-0.3c0.6-0.1,1-0.2,1.3-0.3
	c0.3-0.1,0.5-0.2,0.7-0.4s0.2-0.2,0.3-0.4s0-0.2,0-0.3c0-2.5-1-3.7-3-3.7c-0.6,0-1.2,0.1-1.7,0.4s-1,0.7-1.4,1.1s-0.7,1.1-1,1.7
	C220.9,79.3,220.7,80,220.6,80.8z"/>
<path class="st0" d="M269,82.8c0,0.7-0.1,1.5-0.3,2.3c-0.2,0.8-0.5,1.6-0.9,2.4c-0.4,0.8-1,1.6-1.8,2.3s-1.7,1.4-2.8,1.9
	s-2.5,1-4.1,1.3s-3.4,0.5-5.5,0.5h-8.9l4.6-31.4h7.3c2.2,0,4.1,0.2,5.7,0.5c1.6,0.3,2.9,0.8,3.9,1.4c1,0.6,1.8,1.4,2.3,2.3
	c0.5,0.9,0.7,2,0.7,3.2c0,2-0.6,3.6-1.6,4.8c-1.1,1.2-2.7,1.9-4.8,2.3c0.9,0.2,1.7,0.5,2.5,0.8c0.8,0.4,1.4,0.8,2,1.3
	c0.6,0.5,1,1.1,1.3,1.8C268.8,81.2,269,82,269,82.8z M254.7,89c1.2,0,2.4-0.1,3.3-0.3c1-0.2,1.8-0.5,2.5-1s1.2-1.1,1.6-1.8
	c0.4-0.8,0.6-1.7,0.6-2.9c0-0.7-0.1-1.2-0.3-1.7c-0.2-0.5-0.6-0.9-1.1-1.2s-1.1-0.5-1.9-0.7c-0.8-0.1-1.8-0.2-2.9-0.2H253l-1.4,9.7
	H254.7z M256.4,75c1.3,0,2.3-0.1,3.2-0.4c0.8-0.2,1.5-0.6,2-1c0.5-0.4,0.9-0.9,1.1-1.4c0.2-0.5,0.3-1.1,0.3-1.7c0-0.5-0.1-1-0.2-1.4
	c-0.2-0.5-0.4-0.8-0.9-1.2c-0.4-0.3-1-0.6-1.7-0.8c-0.7-0.2-1.7-0.3-2.9-0.3h-2.5l-1.2,8.2H256.4z"/>
<path class="st0" d="M280,93.6l-7.8,0l1.2-8.2h7.8L280,93.6z"/>
<path class="st0" d="M304.5,93.6h-18.8l4.5-31.4h18.4l-0.7,4.6h-12.3l-1.2,8.2h11l-0.6,4.4h-11.1l-1.4,9.8h13.1L304.5,93.6z"/>
<path class="st0" d="M317.2,93.6l-7.8,0l1.2-8.2h7.8L317.2,93.6z"/>
<path class="st0" d="M317.1,93.6h-7.8l1.2-8.2h7.8L317.1,93.6z"/>
</svg>
