<?xml version="1.0" encoding="utf-8"?>
<!-- Generator: Adobe Illustrator 22.0.1, SVG Export Plug-In . SVG Version: 6.00 Build 0)  -->
<svg version="1.1" id="Capa_1" xmlns="http://www.w3.org/2000/svg" xmlns:xlink="http://www.w3.org/1999/xlink" x="0px" y="0px"
	 viewBox="0 0 20.1 24.6" style="enable-background:new 0 0 20.1 24.6;" xml:space="preserve">
<style type="text/css">
	.st0{fill:#C41425;}
</style>
<g>
	<g>
		<path class="st0" d="M9.9,2C5.5,2,2,5.5,2,9.8c0,4.2,7.3,12.6,7.6,12.9c0.1,0.1,0.2,0.1,0.3,0.1s0.2,0,0.3-0.1
			c0.3-0.3,7.5-8.7,7.5-12.9C17.7,5.5,14.2,2,9.9,2z M9.9,21.9c-1.4-1.6-7.1-8.6-7.1-12.1c0-3.9,3.2-7.1,7.1-7.1s7.1,3.2,7.1,7.1
			C17,13.3,11.2,20.3,9.9,21.9z"/>
	</g>
</g>
<g>
	<g>
		<path class="st0" d="M9.9,4.2C6.6,4.2,4,6.8,4,10s2.6,5.8,5.8,5.8s5.8-2.6,5.8-5.8S13.1,4.2,9.9,4.2z M9.9,15.1
			c-2.8,0-5.1-2.3-5.1-5.1S7.1,5,9.9,5s5.1,2.3,5.1,5.1S12.6,15.1,9.9,15.1z"/>
	</g>
</g>
<g>
	<g>
		<path class="st0" d="M12.8,8.6h-1.6V7.1c0-0.2-0.2-0.4-0.4-0.4h-2c-0.2,0-0.4,0.2-0.4,0.4v1.6H6.9C6.7,8.6,6.5,8.8,6.5,9v2
			c0,0.2,0.2,0.4,0.4,0.4h1.6V13c0,0.2,0.2,0.4,0.4,0.4h2c0.2,0,0.4-0.2,0.4-0.4v-1.6h1.6c0.2,0,0.4-0.2,0.4-0.4V9
			C13.2,8.8,13,8.6,12.8,8.6z M12.4,10.6h-1.6c-0.2,0-0.4,0.2-0.4,0.4v1.6H9.3V11c0-0.2-0.2-0.4-0.4-0.4H7.3V9.4h1.6
			c0.2,0,0.4-0.2,0.4-0.4V7.4h1.2V9c0,0.2,0.2,0.4,0.4,0.4h1.6V10.6z"/>
	</g>
</g>
</svg>
